<?xml version="1.0" encoding="UTF-8" standalone="no"?>
<!DOCTYPE svg PUBLIC "-//W3C//DTD SVG 1.1//EN" "http://www.w3.org/Graphics/SVG/1.1/DTD/svg11.dtd">
<svg width="100%" height="100%" viewBox="0 0 425 426" version="1.1" xmlns="http://www.w3.org/2000/svg" xmlns:xlink="http://www.w3.org/1999/xlink" xml:space="preserve" xmlns:serif="http://www.serif.com/" style="fill-rule:evenodd;clip-rule:evenodd;stroke-linejoin:round;stroke-miterlimit:2;">
    <g transform="matrix(1,0,0,1,-825.245,-270.384)">
        <g transform="matrix(0.73433,0,0,0.73433,553.146,124.62)">
            <path d="M523.5,314.3C594.1,314.3 651.2,341.9 651.2,375.9C651.2,409.9 594,437.5 523.5,437.5C453,437.5 395.8,409.9 395.8,375.9C395.8,341.9 453,314.3 523.5,314.3Z" style="fill:rgb(230,230,230);"/>
            <path d="M432,250.3L523,302.3L523,429.7L432,377.8L432,250.3Z" style="fill:rgb(153,153,153);"/>
            <path d="M438,261.9L438,373.8L517,418.1L517,306.2L438,261.9Z" style="fill:rgb(128,128,128);"/>
            <path d="M440,266.6L440,372.2L514,413.5L514,307.8L440,266.6Z" style="fill:rgb(179,179,179);"/>
            <path d="M635,250.3L523,302.3L523,429.7L635,377.8L635,250.3Z" style="fill:rgb(77,77,77);"/>
            <path d="M634.4,250.3L523.5,302.3L431,250.3L541.8,198.5L634.4,250.3Z" style="fill:rgb(204,204,204);"/>
            <path d="M440,266.6L440,372.2L443,370.7L443,270.4L512.2,309.2L513.9,307.8L440,266.6Z" style="fill:rgb(230,230,230);"/>
            <path d="M514,413.5L440.5,372.2L442.7,370.7L511.8,409.6L512,309.2L514,307.8L514,413.5Z" style="fill:rgb(102,102,102);"/>
            <path d="M475.8,317.3C485.9,321 493.4,333 492.5,344C492,350.2 488.9,354.7 484.6,356.8C480.9,360 475.5,360.9 469.8,358.8C459.7,355 452.2,343.1 453.1,332.1C453.6,325.9 456.7,321.4 461,319.2C464.7,316.1 470.1,315.1 475.8,317.3Z" style="fill:rgb(102,102,102);"/>
            <path d="M473.1,319C483.3,322.7 490.8,334.7 489.8,345.7C488.9,356.7 479.9,362.6 469.7,358.8C459.6,355 452.1,343.1 453,332.1C453.9,321.1 462.9,315.3 473.1,319Z" style="fill:rgb(230,230,230);"/>
            <path d="M473,319.8C482.7,323.4 489.9,334.9 489,345.4C488.1,356 479.5,361.6 469.7,358C460,354.4 452.8,342.9 453.7,332.3C454.6,321.8 463.3,316.2 473,319.8Z" style="fill:rgb(179,179,179);"/>
            <path d="M472.8,322.8L474,325.9L471.1,324.8L472.8,322.8ZM480,327.7L479.8,330.7L477.5,328.2L480,327.7ZM485,335.6L483.4,337.7L482.2,334.5L485,335.6ZM486.3,344.4L483.8,345.1L484,342L486.3,344.4ZM483.6,351.7L480.8,350.7L482.4,348.6L483.6,351.7ZM477.7,355.6L475.4,353.2L478,352.6L477.7,355.6ZM470.1,355L468.9,351.9L471.8,353L470.1,355ZM462.8,350.1L463,347.1L465.3,349.6L462.8,350.1ZM457.9,342.2L459.5,340.1L460.7,343.3L457.9,342.2ZM456.5,333.4L459,332.7L458.8,335.8L456.5,333.4ZM459.2,326.1L462,327.1L460.4,329.2L459.2,326.1ZM465.2,322.2L467.5,324.5L464.9,325.1L465.2,322.2Z" style="fill:rgb(51,51,51);"/>
            <path d="M472.4,326.7C478.6,329 483.2,336.3 482.7,343.1C482.4,346.8 480.6,349.5 478,350.9C475.6,352.2 474.5,353 472.6,354.1C470.4,355.3 467.7,355.5 464.8,354.4C458.6,352.1 454,344.8 454.5,338C454.8,334.8 456.1,332.3 458.2,330.8C458.3,330.8 464.7,326.9 464.9,326.8C467.1,325.8 469.7,325.7 472.4,326.7Z" style="fill:rgb(102,102,102);"/>
            <path d="M467,330C473.2,332.3 477.8,339.6 477.2,346.4C476.6,353.1 471.1,356.7 464.9,354.4C458.7,352.1 454.1,344.8 454.6,338C455.2,331.3 460.7,327.7 467,330Z" style="fill:rgb(230,230,230);"/>
            <path d="M466.9,330.7C472.7,332.8 477,339.7 476.5,346C475.9,352.3 470.8,355.7 465,353.6C459.2,351.4 454.9,344.6 455.4,338.2C455.9,331.9 461,328.6 466.9,330.7Z" style="fill:rgb(179,179,179);"/>
        </g>
        <g transform="matrix(0.73433,0,0,0.73433,322.156,124.62)">
            <path d="M1126.9,314.3C1197.4,314.3 1254.6,341.9 1254.6,375.9C1254.6,409.9 1197.4,437.5 1126.9,437.5C1056.3,437.5 999.2,409.9 999.2,375.9C999.2,341.9 1056.3,314.3 1126.9,314.3Z" style="fill:rgb(230,230,230);"/>
            <path d="M1035,250.3L1127,302.3L1127,429.7L1035,377.8L1035,250.3Z" style="fill:rgb(153,153,153);"/>
            <path d="M1041,261.9L1041,373.8L1120,418.1L1120,306.2L1041,261.9Z" style="fill:rgb(128,128,128);"/>
            <path d="M1043,266.6L1043,372.2L1117,413.5L1117,307.8L1043,266.6Z" style="fill:rgb(179,179,179);"/>
            <path d="M1238,250.3L1127,302.3L1127,429.7L1238,377.8L1238,250.3Z" style="fill:rgb(77,77,77);"/>
            <path d="M1237.7,250.3L1126.9,302.3L1034.3,250.3L1145.2,198.5L1237.7,250.3Z" style="fill:rgb(204,204,204);"/>
            <path d="M1043,266.6L1043,372.2L1046,370.7L1046,270.4L1115.4,309.2L1117,307.8L1043,266.6Z" style="fill:rgb(230,230,230);"/>
            <path d="M1117,413.5L1043.6,372.2L1045.9,370.7L1115.1,409.6L1115.1,309.2L1117,307.8L1117,413.5Z" style="fill:rgb(102,102,102);"/>
            <path d="M1059,297.9L1059,357.6L1101,380.9L1101,321.2L1059,297.9Z" style="fill:rgb(179,179,179);"/>
            <path d="M1059,297.9L1059,357.6L1060,356.8L1060,300.1L1099.4,322L1100.5,321.2L1059,297.9Z" style="fill:rgb(230,230,230);"/>
            <path d="M1101,380.9L1059.3,357.6L1060.5,356.8L1099.5,378.8L1099.8,322L1101,321.2L1101,380.9Z" style="fill:rgb(102,102,102);"/>
            <path d="M1077.3,325.3C1079.2,326.3 1080.7,330.3 1080.7,334.2C1080.7,336.8 1080.1,338.6 1079.1,339.5L1079.1,351.2L1075.1,349.1L1075.1,337.6C1074.1,335.8 1073.7,333.3 1073.7,330.7C1073.6,326.7 1075.4,324.3 1077.3,325.3Z" style="fill:rgb(128,128,128);"/>
            <path d="M1077.3,325.3C1079.2,326.3 1080.7,330.3 1080.7,334.2C1080.7,336.8 1080.1,338.6 1079.1,339.5L1079.1,349.2L1078.1,348.3L1078.1,336.8C1076.1,335 1076.2,332.5 1076.2,329.9C1076.2,327.8 1076.5,326.2 1077.2,325.2L1077.3,325.3Z" style="fill:rgb(51,51,51);"/>
        </g>
        <g transform="matrix(0.73433,0,0,0.73433,328.104,122.169)">
            <path d="M677,600.5L684,604.2L684,709.8L677,706.1L677,600.5Z" style="fill:rgb(153,153,153);"/>
            <path d="M836.5,622.8C907,622.8 964.2,650.4 964.2,684.4C964.2,718.4 907,746 836.5,746C765.9,746 708.8,718.4 708.8,684.4C708.8,650.4 765.9,622.8 836.5,622.8Z" style="fill:rgb(230,230,230);"/>
            <path d="M744,548.5L836,600.4L836,727.8L744,675.9L744,548.5Z" style="fill:rgb(153,153,153);"/>
            <path d="M750,560.1L750,671.9L830,716.2L830,604.3L750,560.1Z" style="fill:rgb(128,128,128);"/>
            <path d="M754,564.7L754,670.3L827,711.6L827,606L754,564.7Z" style="fill:rgb(51,51,51);"/>
            <path d="M948,548.5L836,600.4L836,727.8L948,675.9L948,548.5Z" style="fill:rgb(77,77,77);"/>
            <path d="M947.3,548.5L836.5,600.4L743.9,548.5L854.8,496.6L947.3,548.5Z" style="fill:rgb(204,204,204);"/>
            <path d="M827,606L754,564.7L754,670.3L827,635.9L827,606Z" style="fill:rgb(26,26,26);"/>
            <path d="M760,568.5L684,604.2L684,709.8L760,674.1L760,568.5Z" style="fill:rgb(77,77,77);"/>
            <path d="M760.1,568.5L683.8,604.2L677,600.5L753.4,564.7L760.1,568.5Z" style="fill:rgb(204,204,204);"/>
        </g>
        <g transform="matrix(0.73433,0,0,0.73433,328.104,122.169)">
            <path d="M1126.9,622.8C1197.4,622.8 1254.6,650.4 1254.6,684.4C1254.6,718.4 1197.4,746 1126.9,746C1056.3,746 999.2,718.4 999.2,684.4C999.2,650.4 1056.3,622.8 1126.9,622.8Z" style="fill:rgb(230,230,230);"/>
            <path d="M1035,548.5L1127,600.4L1127,727.8L1035,675.9L1035,548.5Z" style="fill:rgb(153,153,153);"/>
            <path d="M1041,560.1L1041,671.9L1120,716.2L1120,604.3L1041,560.1Z" style="fill:rgb(128,128,128);"/>
            <path d="M1043,564.7L1043,670.3L1117,711.6L1117,606L1043,564.7Z" style="fill:rgb(51,51,51);"/>
            <path d="M1238,548.5L1127,600.4L1127,727.8L1238,675.9L1238,548.5Z" style="fill:rgb(77,77,77);"/>
            <path d="M1237.7,548.5L1126.9,600.4L1034.3,548.5L1145.2,496.6L1237.7,548.5Z" style="fill:rgb(204,204,204);"/>
            <path d="M1117,606L1043,564.7L1043,670.3L1117,635.9L1117,606Z" style="fill:rgb(26,26,26);"/>
            <path d="M983,697.2L1002,707.3L1002,715.8L983,705.6L983,697.2Z" style="fill:rgb(176,176,121);"/>
            <path d="M1035,691.8L1002,707.3L1002,715.8L1035,700.2L1035,691.8Z" style="fill:rgb(135,135,76);"/>
            <path d="M1034.6,691.8L1001.3,707.3L983.3,697.2L1016.5,681.7L1034.6,691.8Z" style="fill:rgb(212,212,157);"/>
            <path d="M1030.7,691.7L1016.4,683.6L987.2,697.3L1001.4,705.4L1030.7,691.7Z" style="fill:rgb(204,255,204);"/>
            <path d="M1008.7,689.9C1012.8,689.9 1016,691.7 1016,693.9C1016,696.1 1012.7,697.9 1008.7,697.9C1004.6,697.9 1001.3,696.1 1001.3,693.9C1001.3,691.7 1004.7,689.9 1008.7,689.9Z" style="fill:rgb(212,212,157);"/>
            <path d="M1021,698.2L1016,700.6L1016,709L1021,706.6L1021,698.2Z" style="fill:rgb(153,153,153);"/>
            <path d="M1020.8,698.2L1015.8,700.6L997.7,690.4L1002.7,688.1L1020.8,698.2Z" style="fill:white;"/>
            <path d="M1020,699.6L1037,709.8L1037,718.2L1020,708L1020,699.6Z" style="fill:rgb(176,176,121);"/>
            <path d="M1071,694.2L1037,709.8L1037,718.2L1071,702.6L1071,694.2Z" style="fill:rgb(135,135,76);"/>
            <path d="M1070.9,694.2L1037.6,709.8L1019.5,699.6L1052.8,684L1070.9,694.2Z" style="fill:rgb(212,212,157);"/>
            <path d="M1067,694L1052.7,686.1L1023.5,699.8L1037.7,707.7L1067,694Z" style="fill:rgb(204,255,204);"/>
            <path d="M1045,692.3C1049.1,692.3 1052.3,694.1 1052.3,696.3C1052.3,698.5 1049,700.3 1045,700.3C1040.9,700.3 1037.6,698.5 1037.6,696.3C1037.6,694.1 1040.9,692.3 1045,692.3Z" style="fill:rgb(212,212,157);"/>
            <path d="M1057,700.6L1052,703L1052,711.4L1057,709L1057,700.6Z" style="fill:rgb(153,153,153);"/>
            <path d="M1057.1,700.6L1052.1,703L1034,692.8L1039,690.5L1057.1,700.6Z" style="fill:white;"/>
            <path d="M1036,678.7L1054,688.8L1054,697.2L1036,687.1L1036,678.7Z" style="fill:rgb(176,176,121);"/>
            <path d="M1087,673.3L1054,688.8L1054,697.2L1087,681.7L1087,673.3Z" style="fill:rgb(135,135,76);"/>
            <path d="M1087,673.3L1053.7,688.8L1035.6,678.7L1068.9,663.1L1087,673.3Z" style="fill:rgb(212,212,157);"/>
            <path d="M1083.1,673.1L1068.8,665.1L1039.6,678.8L1053.8,686.8L1083.1,673.1Z" style="fill:rgb(204,255,204);"/>
            <path d="M1061.1,671.4C1065.2,671.4 1068.4,673.2 1068.4,675.4C1068.4,677.6 1065.1,679.4 1061.1,679.4C1057.1,679.4 1053.7,677.6 1053.7,675.4C1053.7,673.2 1057.1,671.4 1061.1,671.4Z" style="fill:rgb(212,212,157);"/>
            <path d="M1073,679.7L1068,682.1L1068,690.5L1073,688.1L1073,679.7Z" style="fill:rgb(153,153,153);"/>
            <path d="M1073.2,679.7L1068.2,682.1L1050.1,671.9L1055.1,669.6L1073.2,679.7Z" style="fill:white;"/>
            <path d="M1062,724.9L1082.8,724L1087.2,731.2L1066.4,732L1062,724.9Z" style="fill:rgb(176,176,121);"/>
            <path d="M1102.9,693.3L1082.8,724L1087.2,731.2L1107.3,700.5L1102.9,693.3Z" style="fill:rgb(135,135,76);"/>
            <path d="M1102.9,693.3L1082.8,724L1062,724.9L1082.2,694.2L1102.9,693.3Z" style="fill:rgb(212,212,157);"/>
            <path d="M1099.5,695.3L1083.2,695.9L1065.4,722.9L1081.8,722.3L1099.5,695.3Z" style="fill:rgb(204,255,204);"/>
            <path d="M1079.9,705.3C1083.4,703.2 1087.1,703 1088.3,704.9C1089.5,706.8 1087.6,710 1084.2,712.2C1080.7,714.3 1077,714.5 1075.8,712.6C1074.6,710.7 1076.4,707.4 1079.9,705.3Z" style="fill:rgb(212,212,157);"/>
            <path d="M1094.6,706L1091.5,710.6L1095.9,717.8L1099,713.2L1094.6,706Z" style="fill:rgb(153,153,153);"/>
            <path d="M1094.6,706L1091.5,710.6L1070.8,711.5L1073.9,706.9L1094.6,706Z" style="fill:white;"/>
            <path d="M1011.4,706.8L1026.9,720.5L1025.1,728.7L1009.6,714.9L1011.4,706.8Z" style="fill:rgb(176,176,121);"/>
            <path d="M1062.7,712.4L1026.9,720.5L1025.1,728.7L1060.9,720.6L1062.7,712.4Z" style="fill:rgb(135,135,76);"/>
            <path d="M1062.7,712.4L1026.9,720.5L1011.4,706.8L1047.2,698.6L1062.7,712.4Z" style="fill:rgb(212,212,157);"/>
            <path d="M1058.9,711.4L1046.6,700.6L1015.1,707.7L1027.4,718.6L1058.9,711.4Z" style="fill:rgb(204,255,204);"/>
            <path d="M1037.8,705.1C1041.8,705.9 1044.6,708.4 1044.1,710.6C1043.6,712.8 1040,713.8 1036.1,712.9C1032.1,712 1029.3,709.6 1029.8,707.4C1030.2,705.2 1033.8,704.2 1037.8,705.1Z" style="fill:rgb(212,212,157);"/>
            <path d="M1047.9,715.8L1042.5,717L1040.7,725.2L1046.1,724L1047.9,715.8Z" style="fill:rgb(153,153,153);"/>
            <path d="M1047.9,715.8L1042.5,717L1027,703.2L1032.4,702L1047.9,715.8Z" style="fill:white;"/>
            <path d="M1031,721L1048,731.2L1048,739.6L1031,729.4L1031,721Z" style="fill:rgb(176,176,121);"/>
            <path d="M1081,715.6L1048,731.2L1048,739.6L1081,724L1081,715.6Z" style="fill:rgb(135,135,76);"/>
            <path d="M1081.7,715.6L1048.5,731.2L1030.4,721L1063.6,705.5L1081.7,715.6Z" style="fill:rgb(212,212,157);"/>
            <path d="M1077.8,715.5L1063.6,707.5L1034.3,721.2L1048.6,729.2L1077.8,715.5Z" style="fill:rgb(204,255,204);"/>
            <path d="M1055.9,713.7C1060,713.7 1063.2,715.5 1063.2,717.7C1063.2,719.9 1059.9,721.7 1055.9,721.7C1051.8,721.7 1048.6,719.9 1048.6,717.7C1048.5,715.5 1051.8,713.7 1055.9,713.7Z" style="fill:rgb(212,212,157);"/>
            <path d="M1068,722.1L1063,724.4L1063,732.8L1068,730.5L1068,722.1Z" style="fill:rgb(153,153,153);"/>
            <path d="M1068,722.1L1063,724.4L1044.9,714.2L1049.9,711.9L1068,722.1Z" style="fill:white;"/>
            <path d="M1067,686.9L1085,697L1085,705.4L1067,695.3L1067,686.9Z" style="fill:rgb(176,176,121);"/>
            <path d="M1118,681.5L1085,697L1085,705.4L1118,689.9L1118,681.5Z" style="fill:rgb(135,135,76);"/>
            <path d="M1118.2,681.5L1085,697L1066.9,686.9L1100.1,671.3L1118.2,681.5Z" style="fill:rgb(212,212,157);"/>
            <path d="M1114.3,681.3L1100,673.3L1070.7,687L1085,695L1114.3,681.3Z" style="fill:rgb(204,255,204);"/>
            <path d="M1092.3,679.6C1096.4,679.6 1099.6,681.4 1099.6,683.6C1099.6,685.8 1096.3,687.6 1092.3,687.6C1088.2,687.6 1085,685.8 1085,683.6C1085,681.4 1088.2,679.6 1092.3,679.6Z" style="fill:rgb(212,212,157);"/>
            <path d="M1105,687.9L1100,690.3L1100,698.7L1105,696.3L1105,687.9Z" style="fill:rgb(153,153,153);"/>
            <path d="M1104.5,687.9L1099.4,690.3L1081.3,680.1L1086.4,677.8L1104.5,687.9Z" style="fill:white;"/>
            <path d="M1065,663.6L1082,673.8L1082,682.2L1065,672L1065,663.6Z" style="fill:rgb(176,176,121);"/>
            <path d="M1116,658.2L1082,673.8L1082,682.2L1116,666.6L1116,658.2Z" style="fill:rgb(135,135,76);"/>
            <path d="M1116.1,658.2L1082.9,673.8L1064.8,663.6L1098,648.1L1116.1,658.2Z" style="fill:rgb(212,212,157);"/>
            <path d="M1112.2,658.1L1098,650.1L1068.7,663.8L1083,671.8L1112.2,658.1Z" style="fill:rgb(204,255,204);"/>
            <path d="M1090.3,656.3C1094.4,656.3 1097.6,658.1 1097.6,660.3C1097.6,662.5 1094.3,664.3 1090.3,664.3C1086.3,664.3 1083,662.5 1083,660.3C1082.9,658.1 1086.2,656.3 1090.3,656.3Z" style="fill:rgb(212,212,157);"/>
            <path d="M1102,664.6L1097,667L1097,675.4L1102,673L1102,664.6Z" style="fill:rgb(153,153,153);"/>
            <path d="M1102.4,664.6L1097.4,667L1079.3,656.9L1084.3,654.5L1102.4,664.6Z" style="fill:white;"/>
            <path d="M1060.7,717.1L1075.2,732L1072.7,740L1058.3,725.1L1060.7,717.1Z" style="fill:rgb(176,176,121);"/>
            <path d="M1111.5,726.7L1075.2,732L1072.7,740L1109,734.7L1111.5,726.7Z" style="fill:rgb(135,135,76);"/>
            <path d="M1111.5,726.7L1075.2,732L1060.7,717.1L1097,711.7L1111.5,726.7Z" style="fill:rgb(212,212,157);"/>
            <path d="M1107.7,725.4L1096.4,713.7L1064.4,718.3L1075.8,730.1L1107.7,725.4Z" style="fill:rgb(204,255,204);"/>
            <path d="M1087.2,717.4C1091.1,718.6 1093.7,721.2 1093.1,723.4C1092.5,725.5 1088.8,726.3 1084.9,725.2C1081,724 1078.4,721.3 1079,719.2C1079.6,717 1083.3,716.2 1087.2,717.4Z" style="fill:rgb(212,212,157);"/>
            <path d="M1096.4,728.9L1091,729.7L1088.6,737.7L1094,736.9L1096.4,728.9Z" style="fill:rgb(153,153,153);"/>
            <path d="M1096.4,728.9L1091,729.7L1076.6,714.8L1082,714L1096.4,728.9Z" style="fill:white;"/>
            <path d="M1024,763.2L1042,773.3L1042,781.7L1024,771.6L1024,763.2Z" style="fill:rgb(176,176,121);"/>
            <path d="M1075,757.7L1042,773.3L1042,781.7L1075,766.1L1075,757.7Z" style="fill:rgb(135,135,76);"/>
            <path d="M1075.1,757.7L1041.8,773.3L1023.7,763.2L1057,747.6L1075.1,757.7Z" style="fill:rgb(212,212,157);"/>
            <path d="M1071.1,757.6L1056.9,749.6L1027.6,763.3L1041.9,771.3L1071.1,757.6Z" style="fill:rgb(204,255,204);"/>
            <path d="M1049.2,755.8C1053.3,755.8 1056.5,757.6 1056.5,759.8C1056.5,762 1053.2,763.8 1049.2,763.8C1045.1,763.8 1041.9,762 1041.9,759.8C1041.8,757.7 1045.1,755.8 1049.2,755.8Z" style="fill:rgb(212,212,157);"/>
            <path d="M1062,764.2L1057,766.5L1057,774.9L1062,772.6L1062,764.2Z" style="fill:rgb(153,153,153);"/>
            <path d="M1061.3,764.2L1056.3,766.5L1038.2,756.4L1043.2,754L1061.3,764.2Z" style="fill:white;"/>
        </g>
    </g>
</svg>
